<mxfile host="app.diagrams.net" modified="2024-02-20T14:33:06.777Z" agent="Mozilla/5.0 (X11; Linux x86_64; rv:122.0) Gecko/20100101 Firefox/122.0" version="23.1.5" etag="8d9xfSyQd2bxh6ms-1QE" type="github">
  <diagram name="Page-1" id="lUCpo4jj6hn-4JSz_q0_">
    <mxGraphModel>
      <root>
        <mxCell id="0" />
        <mxCell id="1" parent="0" />
      </root>
    </mxGraphModel>
  </diagram>
</mxfile>
